# xmcd
#
# Track frame offsets:
#	150
#	4732
#	7302
#	31420
#	65327
#	90160
#	114320
#	135872
#	164450
#	199612
#	226595
#	255255
#	274440
#
# Disc length: 3897 seconds
#
# Revision: 1
# Processed by: cddbd v1.5.2PL0 Copyright (c) Steve Scherf et al.
# Submitted via: audiograbber 1.83.01
#
DISCID=980f370d
DTITLE=Waidele's Conversation - Crazy World
DYEAR=1997
DGENRE=Blues
TTITLE0=Overture #2
TTITLE1=Don't wonna give up
TTITLE2=Two different lovers (dance version)
TTITLE3=More conversational groove
TTITLE4=Bein' in Love
TTITLE5=Six eight love
TTITLE6=Bad times
TTITLE7=Crazy world
TTITLE8=Separate ways
TTITLE9=Thinkin' bout you (for Penny)
TTITLE10=Round midnight
TTITLE11=Love makes it real
TTITLE12=Bonus track
EXTD=Germany, Singen, Konstanz // Jürgen Waidele 1997
EXTT0=
EXTT1=
EXTT2=
EXTT3=
EXTT4=
EXTT5=
EXTT6=
EXTT7=
EXTT8=
EXTT9=
EXTT10=
EXTT11=
EXTT12=
PLAYORDER=
